<?xml version="1.0" standalone="no"?>
<!DOCTYPE svg PUBLIC "-//W3C//DTD SVG 20010904//EN"
 "http://www.w3.org/TR/2001/REC-SVG-20010904/DTD/svg10.dtd">
<svg version="1.0" xmlns="http://www.w3.org/2000/svg"
 width="260.000000pt" height="260.000000pt" viewBox="0 0 260.000000 260.000000"
 preserveAspectRatio="xMidYMid meet">
<metadata>
Created by potrace 1.11, written by Peter Selinger 2001-2013
</metadata>
<g transform="translate(0.000000,260.000000) scale(0.100000,-0.100000)"
fill="#000000" stroke="none">
<path d="M295 2048 c-128 -137 -213 -293 -260 -478 -41 -159 -41 -391 -2 -555
20 -80 81 -223 129 -300 55 -86 186 -234 211 -235 13 0 7 21 -13 51 -59 81
-161 332 -189 459 -5 25 -13 59 -16 75 -19 86 -13 380 9 499 22 115 83 283
152 415 35 68 64 127 64 132 0 21 -21 5 -85 -63z"/>
<path d="M2220 2109 c0 -6 9 -24 20 -40 55 -76 163 -335 184 -439 3 -14 8 -36
11 -50 16 -70 23 -157 23 -275 0 -268 -65 -495 -219 -772 -39 -68 -12 -63 60
12 151 158 250 356 286 575 16 96 14 318 -3 390 -6 25 -13 56 -15 70 -27 143
-145 353 -268 478 -60 61 -79 73 -79 51z"/>
<path d="M1190 2044 c-284 -50 -509 -239 -599 -502 -12 -34 -23 -79 -26 -100
-5 -33 -2 -30 28 31 37 74 71 114 134 158 103 71 298 78 421 15 86 -45 162
-163 181 -284 6 -37 15 -95 20 -130 6 -35 21 -87 34 -116 80 -174 370 -227
533 -97 128 102 168 270 113 471 -74 274 -290 480 -570 546 -32 8 -237 14
-269 8z"/>
<path d="M427 1973 c-132 -137 -212 -295 -252 -498 -17 -83 -14 -314 5 -390
44 -180 125 -334 238 -453 52 -56 87 -72 58 -27 -88 134 -157 298 -187 440
-29 140 -31 338 -4 480 27 139 96 315 168 428 21 32 37 60 37 62 0 15 -23 0
-63 -42z"/>
<path d="M2128 1993 c96 -139 191 -404 202 -563 16 -236 -10 -407 -91 -602
-28 -68 -53 -116 -109 -210 -12 -21 -17 -38 -11 -38 35 0 185 200 235 313 118
268 112 599 -15 851 -59 116 -184 276 -216 276 -12 0 -11 -5 5 -27z"/>
<path d="M525 1884 c-198 -226 -267 -538 -185 -833 34 -119 90 -224 178 -328
43 -52 80 -75 48 -30 -36 51 -106 187 -129 253 -94 264 -77 558 48 815 17 36
46 86 63 112 18 25 32 48 32 51 0 15 -18 2 -55 -40z"/>
<path d="M2075 1839 c137 -232 181 -498 125 -757 -27 -120 -87 -266 -150 -358
-42 -63 -37 -73 11 -22 235 249 299 644 156 963 -17 39 -44 90 -61 115 -38 59
-115 150 -126 150 -5 0 15 -41 45 -91z"/>
<path d="M820 1638 c-50 -11 -133 -63 -169 -104 -13 -14 -38 -55 -56 -90 -18
-34 -35 -61 -38 -58 -12 13 2 -217 17 -274 74 -276 279 -474 567 -549 51 -13
264 -12 323 2 276 65 476 254 565 534 18 57 12 58 -16 0 -69 -139 -203 -212
-372 -204 -227 11 -355 148 -375 400 -3 39 -10 87 -15 107 -25 106 -99 191
-193 222 -65 22 -177 29 -238 14z"/>
</g>
</svg>
